<svg width="32" height="32" xmlns="http://www.w3.org/2000/svg"><path d="M15 31c.85 0 1.683-.228 2.418-.66l8.164-4.792A4.904 4.904 0 0 0 28 21.293v-9.601c0-.846-.215-1.677-.624-2.414a4.816 4.816 0 0 0-1.794-1.832l-8.164-4.792a4.794 4.794 0 0 0-4.836 0L8.63 4.98 4.418 7.455a4.816 4.816 0 0 0-1.794 1.832A4.978 4.978 0 0 0 2 11.692v9.601c0 .877.23 1.737.667 2.493a4.972 4.972 0 0 0 1.734 1.762l8.164 4.791c.723.422 1.54.65 2.374.661H15zM13.449 4.187a3.06 3.06 0 0 1 3.102 0l8.164 4.792a3.3 3.3 0 0 1 .616.476l-4.074 2.395-10.46-6.113 2.652-1.55zM9.063 6.76l10.461 6.104-4.49 2.643-10.4-6.051c.186-.184.393-.343.616-.476l3.813-2.22zM5.285 24.024a3.102 3.102 0 0 1-1.118-1.137 3.094 3.094 0 0 1-.434-1.594v-9.601c.004-.24.033-.48.087-.714l10.313 5.999v12.12a3.549 3.549 0 0 1-.65-.281l-8.198-4.792zm20.982-2.73c0 .542-.137 1.076-.399 1.55-.272.492-.67.9-1.153 1.18l-8.172 4.8a2.945 2.945 0 0 1-.711.291v-12.05l5.859-3.435 4.489-2.643c.054.231.083.468.087.705v9.601z" fill="#000" fill-rule="nonzero"/></svg>