<svg xmlns="http://www.w3.org/2000/svg" width="136" height="177" viewBox="0 0 136 177">
    <path fill="#F3BA8B" fill-rule="evenodd" d="M269.25 96.882c.03.576.038 1.071.042 1.49.162 20.547-9.056 35.388-12.092 40.14-5.66 8.853-13.087 20.47-26.116 22.812-1.133.205-14.473 2.448-22.644-5.536-9.443-9.23-2.932-23.277-12.939-30.316-.76-.535-6.59-4.513-12.628-2.79-13.259 3.786-7.984 29.622-25.094 43.95-9.276 7.768-25.19 12.457-36.806 7.564-16.456-6.931-14.061-17.328-35.365-27.624-3.346-1.616-8.957-4.329-16.539-4.115-15.956.453-20.356 2.12-35.247 3.62-9.918 1-20.552-3.404-26.539-10.35-12.818-14.868-3.358-40.242.966-51.842 5.77-15.475 14.788-25.46 32.488-45.541C55.843 21.206 63.619 12.828 73.899 7.275 78.752 4.654 90.55-.985 138.016.861c42.16 1.64 63.588 2.696 80.797 14.195 12.027 8.037 18.44 17.06 31.267 35.103 13.176 18.532 18.445 32.564 19.17 46.723z"/>
</svg>
