<svg xmlns="http://www.w3.org/2000/svg" width="252" height="193" viewBox="0 0 252 193">
    <path fill="#396B6D" fill-rule="evenodd" d="M-160.9 18.43c-.512 6.108.901 11.907 5.162 16.42 4.818 5.108 8.211 9.381 20.061 16.936 7.896 5.034 36.498 22.992 46.778 21.157 2.835-.508 5.742-.462 8.617-.504 2.577-.036 5.229-.023 7.503 2.546-.887 1.465-1.493 3.24-2.722 4.341-3.292 2.95-6.734 5.773-10.335 8.347-5.366 3.838-10.271 8.03-13.742 13.693-.939 1.535-2.216 2.884-3.418 4.25-6.395 7.257-11.93 15.104-16.648 23.482-3.315 5.89-6.004 12.006-6.8 18.806-.14 1.207-.345 6.491 1.626 12.648 7.624 23.836 39.394 31.517 42.37 32.236 3.955.955 6.935 1.257 8.882 1.207 11.119-.292 21.063-3.75 29.692-10.78 6.07-4.948 11.953-10.125 18.146-14.912 12.314-9.516 21.927-21.465 31.777-33.227 2.162-2.583 4.395-5.145 6.869-7.433 3.439-3.181 7.124-6.109 10.736-9.109.792-.658 1.66-1.28 2.588-1.72 3.528-1.683 7.288-.807 8.532 3.577 1.177 4.149 2.938 8.226 5.076 11.983 3.169 5.567 6.85 10.85 10.392 16.203 4.996 7.547 11.035 14.162 18.21 19.803 9.583 7.535 20.047 13.75 30.766 19.528 3.59 1.934 7.693 3.29 11.738 4.026 7.315 1.33 14.177-.005 19.103-6.223 5.989-7.561 11.663-15.383 15.144-24.395 3.925-10.164 4.864-20.502 1.12-30.926-2.187-6.091-5.106-11.745-9.432-16.638-1.823-2.065-2.86-4.265-1.157-6.968 1.638-2.602 3.5-3.314 7.492-2.426 3.046.678 5.996 1.78 9.059 2.362 5.159.98 15.038 1.823 37.16-1.396 21.468-3.124 32.607-5.86 40.261-10.187 6.153-3.479 10.415-8.113 10.415-8.113 2.05-2.328 3.762-4.962 5.466-7.56 8.71-13.283 8.028-26.834 1.083-40.269-2.967-5.745-8.014-9.95-12.833-14.253-5.525-4.93-11.975-6.964-19.401-6.475-2.346.155-4.704.106-7.058.138-17.086.233-33.89 2.45-50.293 7.47-4.762 1.456-9.584 2.758-14.24 4.493-4.645 1.73-9.281 3.621-13.63 5.968-6.9 3.726-13.53 7.94-20.34 11.838-2.023 1.158-4.184 2.252-6.422 2.831-4.376 1.134-8.189.317-11.03-3.592-3.336-4.587-6.476-9.25-8.626-14.52-1.357-3.324-2.754-6.637-4.29-9.882-2.564-5.42-6.146-10.12-11.17-13.534-3.63-2.466-7.492-4.61-11.295-6.825-2.748-1.6-5.82-2.136-8.995-2.295-5.02-.25-9.89.489-14.707 1.95-9.599 2.917-16.687 8.254-19.829 18.147-.736 2.315-2.12 3.851-3.815 4.574-2.912 1.241-6.413-.805-7.99-1.788-13.038-8.121-25.878-22.067-25.878-22.067s-16.12-16.922-42.2-28.436c-11.914-5.26-24.021-6.306-36.695-3.19-12.292 3.02-23.872 7.853-35.133 13.505-4.04 2.029-7.528 4.878-10.135 8.47-3.971 5.47-7.626 11.194-9.689 17.659-.932 2.93-1.622 6.002-1.876 9.049"/>
</svg>
